<svg width="33" height="32" viewBox="0 0 33 32" fill="none" xmlns="http://www.w3.org/2000/svg">
<path fill-rule="evenodd" clip-rule="evenodd" d="M17.974 18.8C18.214 19.104 18.502 19.448 18.502 19.448C20.27 19.392 20.95 18.232 20.95 18.232C20.95 15.656 19.798 13.568 19.798 13.568C18.646 12.704 17.55 12.728 17.55 12.728L17.438 12.856C18.798 13.272 19.43 13.872 19.43 13.872C18.598 13.416 17.782 13.192 17.022 13.104C16.446 13.04 15.894 13.056 15.406 13.12C15.3641 13.12 15.3283 13.1261 15.2879 13.133L15.27 13.136C14.99 13.16 14.31 13.264 13.454 13.64C13.158 13.776 12.982 13.872 12.982 13.872C12.982 13.872 13.646 13.24 15.086 12.824L15.006 12.728C15.006 12.728 13.91 12.704 12.758 13.568C12.758 13.568 11.606 15.656 11.606 18.232C11.606 18.232 12.278 19.392 14.046 19.448C14.046 19.448 14.342 19.088 14.582 18.784C13.566 18.48 13.182 17.84 13.182 17.84C13.182 17.84 13.262 17.896 13.406 17.976C13.414 17.984 13.422 17.992 13.438 18C13.45 18.008 13.462 18.014 13.474 18.02C13.486 18.026 13.498 18.032 13.51 18.04C13.71 18.152 13.91 18.24 14.094 18.312C14.422 18.44 14.814 18.568 15.27 18.656C15.87 18.768 16.574 18.808 17.342 18.664C17.718 18.6 18.102 18.488 18.502 18.32C18.782 18.216 19.094 18.064 19.422 17.848C19.422 17.848 19.022 18.504 17.974 18.8ZM13.966 16.6C13.966 16.112 14.326 15.712 14.782 15.712C15.238 15.712 15.606 16.112 15.598 16.6C15.598 17.088 15.238 17.488 14.782 17.488C14.334 17.488 13.966 17.088 13.966 16.6ZM16.886 16.6C16.886 16.112 17.246 15.712 17.702 15.712C18.158 15.712 18.518 16.112 18.518 16.6C18.518 17.088 18.158 17.488 17.702 17.488C17.254 17.488 16.886 17.088 16.886 16.6Z" fill="currentColor"/>
<path fill-rule="evenodd" clip-rule="evenodd" d="M0.22998 0H32.23V32H0.22998V0ZM10.87 9H21.59C22.494 9 23.23 9.736 23.23 10.648V25L21.51 23.48L20.542 22.584L19.518 21.632L19.942 23.112H10.87C9.96598 23.112 9.22998 22.376 9.22998 21.464V10.648C9.22998 9.736 9.96598 9 10.87 9Z" fill="currentColor"/>
</svg>
