<svg width="100%" height="175" viewBox="0 0 383 175" fill="none" xmlns="http://www.w3.org/2000/svg">
<path d="M141.217 127.885L145.577 127.138V96.5096L141.217 95.7619V92.3706H171.313V101.717H166.818L166.39 96.5096H150.848V109.914H165.909V114.053H150.848V127.138L155.208 127.885V131.25H141.217V127.885Z" fill="white"/>
<path d="M192.393 92.3973C196.638 92.3973 199.893 93.3408 202.158 95.2278C204.423 97.097 205.555 99.7584 205.555 103.212C205.555 105.099 205.029 106.772 203.977 108.232C202.924 109.692 201.417 110.84 199.456 111.677C201.578 112.371 203.103 113.501 204.03 115.068C204.975 116.635 205.448 118.566 205.448 120.863V123.987C205.448 125.18 205.6 126.061 205.903 126.63C206.206 127.2 206.705 127.538 207.401 127.645L208.685 127.805V131.25H205.849C203.798 131.25 202.336 130.538 201.462 129.114C200.606 127.69 200.178 125.963 200.178 123.933V120.916C200.178 118.798 199.563 117.097 198.332 115.816C197.101 114.534 195.452 113.893 193.383 113.893H184.929V127.138L189.29 127.885V131.25H175.299V127.885L179.659 127.138V96.5096L175.299 95.7619V92.3973H179.659H192.393ZM184.929 109.754H191.858C194.801 109.754 196.941 109.193 198.279 108.072C199.616 106.95 200.285 105.313 200.285 103.159C200.285 101.111 199.643 99.4914 198.359 98.2986C197.075 97.1059 195.086 96.5096 192.393 96.5096H184.929V109.754Z" fill="white"/>
<path d="M247.074 112.104C247.074 117.765 245.442 122.465 242.178 126.203C238.932 129.942 234.723 131.811 229.551 131.811C224.522 131.811 220.438 129.942 217.299 126.203C214.16 122.465 212.591 117.765 212.591 112.104V111.543C212.591 105.9 214.16 101.2 217.299 97.4442C220.438 93.6879 224.522 91.8098 229.551 91.8098C234.723 91.8098 238.932 93.6879 242.178 97.4442C245.442 101.2 247.074 105.9 247.074 111.543V112.104ZM241.804 111.49C241.804 106.968 240.716 103.283 238.54 100.435C236.382 97.5688 233.386 96.1357 229.551 96.1357C225.878 96.1357 223.006 97.5688 220.937 100.435C218.886 103.301 217.861 106.986 217.861 111.49V112.104C217.861 116.661 218.886 120.373 220.937 123.239C223.006 126.087 225.878 127.512 229.551 127.512C233.439 127.512 236.453 126.087 238.594 123.239C240.734 120.391 241.804 116.679 241.804 112.104V111.49Z" fill="white"/>
<path d="M289.208 92.3706V95.7619L284.847 96.5096V131.25H279.577L260.851 101.236L260.691 101.289V127.138L265.051 127.885V131.25H251.06V127.885L255.42 127.138V96.5096L251.06 95.7619V92.3706H255.42H260.691L279.417 122.358L279.577 122.305V96.5096L275.217 95.7619V92.3706H284.847H289.208Z" fill="white"/>
<path d="M324.253 92.3706V100.969H319.759L319.357 96.5096H310.717V127.138L315.077 127.885V131.25H301.086V127.885L305.446 127.138V96.5096H296.779L296.404 100.969H291.883V92.3706H324.253Z" fill="white"/>
<path d="M327.115 95.7619V92.3706H341.107V95.7619L336.746 96.5096V127.138L341.107 127.885V131.25H327.115V127.885L331.476 127.138V96.5096L327.115 95.7619Z" fill="white"/>
<path d="M383 92.3706V95.7619L378.639 96.5096V131.25H373.369L354.643 101.236L354.483 101.289V127.138L358.843 127.885V131.25H344.852V127.885L349.212 127.138V96.5096L344.852 95.7619V92.3706H349.212H354.483L373.209 122.358L373.369 122.305V96.5096L369.009 95.7619V92.3706H378.639H383Z" fill="white"/>
<g clip-path="url(#clip0_140_227)">
<path d="M151.84 72.309H140.021V12.1151H75.8502V0H151.84V72.309Z" fill="white"/>
<path d="M63.8636 175V131.918H0V60.1793H12.0919V119.803H75.9549V147.742L104.081 119.952L119.238 120.107L63.8636 175Z" fill="white"/>
<path d="M24.685 104.098L34.4919 109.343L75.7803 31.8424L65.9734 26.5977L24.685 104.098Z" fill="white"/>
<path d="M113.463 19.8852H102.191V59.5212H113.463V19.8852Z" fill="white"/>
<path d="M92.2838 26.2171L87.5186 36.4429L123.36 53.209L128.125 42.9832L92.2838 26.2171Z" fill="white"/>
<path d="M123.322 26.1175L87.4802 42.8835L92.3209 53.2713L128.163 36.5053L123.322 26.1175Z" fill="white"/>
<path d="M102.746 54.694L114.018 49.4279V49.1996L114.261 49.3137L127.591 43.0874L121.371 40.1824L102.746 48.8809V54.694Z" fill="white"/>
</g>
<path d="M213 151H225V163H213V151Z" fill="#58A9F3"/>
<path d="M141 151H201V163H141V151Z" fill="#FF685C"/>
<defs>
<clipPath id="clip0_140_227">
<rect width="151.84" height="175" fill="white"/>
</clipPath>
</defs>
</svg>
